# xmcd CD database file
#
# Track frame offsets:
#	150
#	24683
#	56548
#	84297
#	131498
#	150871
#	190908
#
# Disc length: 3072 seconds
#
# Revision: 0
# Processed by: cddbd v1.5.2PL0 Copyright (c) Steve Scherf et al.
# Submitted via: CDex 1.70beta2
#
DISCID=4a0bfe07
DTITLE=Joe Bonamassa Band, Sam Bush Band and Crosby Loggins  - Garde Arts Center in New London, New London, Connecticut - 18 nov. 2007 [CD3/4)
DYEAR=2007
DGENRE=Blues
TTITLE0=Joe Bonamassa - Bridge To A Better Day
TTITLE1=Joe Bonamassa - Walk In My Shadows
TTITLE2=Joe Bonamassa - So Many Roads
TTITLE3=Joe Bonamassa - Mountain Time
TTITLE4=Joe Bonamassa - Another Kind Of Love
TTITLE5=Joe Bonamassa - Sloe Gin
TTITLE6=Joe Bonamassa - Woke Up Dreaming
EXTD=YEAR: 2007
EXTT0=
EXTT1=
EXTT2=
EXTT3=
EXTT4=
EXTT5=
EXTT6=
PLAYORDER=
